<?xml version="1.0" encoding="UTF-8" standalone="no"?>
<svg width="22px" height="19px" viewBox="0 0 22 19" version="1.1" xmlns="http://www.w3.org/2000/svg" xmlns:xlink="http://www.w3.org/1999/xlink">
    <!-- Generator: Sketch 3.8.2 (29753) - http://www.bohemiancoding.com/sketch -->
    <title>Shape</title>
    <desc>Created with Sketch.</desc>
    <defs></defs>
    <g id="Page-1" stroke="none" stroke-width="1" fill="none" fill-rule="evenodd">
        <path d="M21.1428571,10.2857143 C21.1428571,10.6800615 21.0219506,11.0167397 20.7801339,11.2957589 C20.5383172,11.5747782 20.2239603,11.7142857 19.8370536,11.7142857 L7.97991071,11.7142857 L11.25,14.9955357 C11.5327395,15.2633942 11.6741071,15.5982123 11.6741071,16 C11.6741071,16.4017877 11.5327395,16.7366058 11.25,17.0044643 L10.4129464,17.8526786 C10.1376474,18.1279776 9.80282935,18.265625 9.40848214,18.265625 C9.02157545,18.265625 8.68303717,18.1279776 8.39285714,17.8526786 L1.12723214,10.5758929 C0.851933147,10.3005939 0.714285714,9.96577578 0.714285714,9.57142857 C0.714285714,9.18452187 0.851933147,8.84598359 1.12723214,8.55580357 L8.39285714,1.30133929 C8.67559665,1.01859978 9.01413493,0.877232143 9.40848214,0.877232143 C9.79538884,0.877232143 10.1302069,1.01859978 10.4129464,1.30133929 L11.25,2.12723214 C11.5327395,2.40997165 11.6741071,2.74850993 11.6741071,3.14285714 C11.6741071,3.53720435 11.5327395,3.87574263 11.25,4.15848214 L7.97991071,7.42857143 L19.8370536,7.42857143 C20.2239603,7.42857143 20.5383172,7.56807896 20.7801339,7.84709821 C21.0219506,8.12611747 21.1428571,8.46279565 21.1428571,8.85714286 L21.1428571,10.2857143 Z" id="Shape" fill="#3298C8"></path>
    </g>
</svg>